<?xml version="1.0" encoding="UTF-8"?><svg id="a" xmlns="http://www.w3.org/2000/svg" width="210.26mm" height="62.31mm" viewBox="0 0 596 176.62"><g><path d="M100.39,49.05h18.09c5.51,0,10.23,1.99,14.18,5.97,3.91,3.95,5.86,8.71,5.86,14.29,0,2.79-.53,5.42-1.59,7.9-1.06,2.48-2.49,4.62-4.3,6.45-1.8,1.82-3.93,3.27-6.36,4.33-2.44,1.06-5.03,1.59-7.79,1.59h-15.02V52.39l-3.07-3.35Zm18.09,37.12c4.61,0,8.54-1.64,11.78-4.91h-.06c3.31-3.35,4.97-7.33,4.97-11.94,0-2.31-.44-4.48-1.31-6.53-.88-2.05-2.07-3.83-3.57-5.36-1.51-1.52-3.28-2.74-5.3-3.66-2.03-.91-4.2-1.37-6.5-1.37h-11.55v33.77h11.55Z" fill="#fff"/><path d="M146.55,49.05v37.06l-3.4,3.46V52.51l3.4-3.46Z" fill="#fff"/><path d="M155.2,79.3h-1.17l-2.68-3.35h5.47c1.12-2.23,2.32-4.58,3.6-7.06,1.28-2.47,2.58-4.98,3.88-7.51,1.3-2.53,2.6-5.03,3.88-7.51,1.28-2.47,2.48-4.83,3.6-7.06l21.49,42.59h-3.74l-5.14-10.1h-25.51c-.33,.71-.73,1.51-1.17,2.4-.45,.89-.89,1.8-1.34,2.71-.45,.91-.88,1.79-1.31,2.65-.43,.86-.79,1.6-1.09,2.23h-3.85l5.08-9.99Zm5.36-3.35h22.16c-.97-1.93-1.91-3.79-2.82-5.58-.91-1.79-1.81-3.56-2.71-5.33-.89-1.77-1.79-3.55-2.68-5.36-.89-1.8-1.84-3.69-2.85-5.67l-11.11,21.94Z" fill="#fff"/><path d="M231.72,46.87v39.69l-3.46,3.01V57.03c-2.31,3.01-4.67,6.12-7.09,9.32-2.42,3.2-4.75,6.27-6.98,9.21l-14.12-18.53v29.53l-3.24,3.07V46.87l17.36,23.22,17.53-23.22Z" fill="#fff"/><path d="M236.24,69.31c0-2.75,.54-5.36,1.62-7.82,1.08-2.45,2.54-4.62,4.38-6.5,1.84-1.88,3.99-3.37,6.45-4.47,2.46-1.1,5.06-1.65,7.81-1.65s5.36,.54,7.82,1.62c2.45,1.08,4.6,2.55,6.45,4.41,1.84,1.86,3.3,4.03,4.38,6.5,1.08,2.48,1.62,5.11,1.62,7.9s-.54,5.37-1.62,7.84c-1.08,2.47-2.54,4.65-4.38,6.53-1.84,1.88-3.99,3.37-6.45,4.46-2.46,1.1-5.06,1.65-7.82,1.65s-5.36-.55-7.81-1.65c-2.46-1.1-4.6-2.59-6.45-4.46-1.84-1.88-3.3-4.06-4.38-6.53-1.08-2.47-1.62-5.09-1.62-7.84Zm20.26-17.14c-2.34,0-4.54,.45-6.59,1.34-2.05,.89-3.83,2.11-5.36,3.66-1.53,1.55-2.74,3.36-3.63,5.44-.89,2.08-1.34,4.32-1.34,6.7s.45,4.56,1.34,6.64c.89,2.08,2.1,3.91,3.63,5.47,1.52,1.56,3.31,2.79,5.36,3.68,2.05,.89,4.24,1.34,6.59,1.34s4.54-.45,6.59-1.34c2.05-.89,3.83-2.12,5.36-3.68,1.53-1.56,2.74-3.39,3.63-5.47,.89-2.08,1.34-4.3,1.34-6.64s-.45-4.61-1.34-6.7c-.89-2.08-2.11-3.9-3.66-5.44-1.54-1.54-3.34-2.76-5.39-3.66-2.05-.89-4.22-1.34-6.53-1.34Z" fill="#fff"/><path d="M314.95,92.14l-30.25-35.78v29.69l-3.4,3.52V46.81l30.2,35.44V48.99l3.46,3.35v39.8Z" fill="#fff"/><path d="M320.42,49.05h18.09c5.51,0,10.23,1.99,14.18,5.97,3.91,3.95,5.86,8.71,5.86,14.29,0,2.79-.53,5.42-1.59,7.9-1.06,2.48-2.49,4.62-4.3,6.45-1.8,1.82-3.93,3.27-6.36,4.33-2.44,1.06-5.03,1.59-7.79,1.59h-15.02V52.39l-3.07-3.35Zm18.09,37.12c4.61,0,8.54-1.64,11.78-4.91h-.06c3.31-3.35,4.97-7.33,4.97-11.94,0-2.31-.44-4.48-1.31-6.53-.87-2.05-2.07-3.83-3.57-5.36-1.51-1.52-3.27-2.74-5.3-3.66-2.03-.91-4.2-1.37-6.5-1.37h-11.55v33.77h11.55Z" fill="#fff"/></g><g><path d="M389.09,85.1c2.01-.93,4.02-2.36,6.03-4.3v4.46c-1.56,1.23-3.12,2.18-4.69,2.85-2.6,1.12-5.25,1.67-7.93,1.67s-5.29-.53-7.7-1.59c-2.42-1.06-4.61-2.54-6.59-4.44-1.9-2.01-3.37-4.23-4.41-6.67-1.04-2.44-1.56-5.03-1.56-7.79s.52-5.34,1.56-7.76c1.04-2.42,2.51-4.63,4.41-6.64,1.97-1.94,4.16-3.42,6.56-4.47,2.4-1.04,4.98-1.56,7.73-1.56s5.25,.54,7.81,1.62c1.64,.63,3.24,1.6,4.8,2.9v4.47c-2.01-2.01-4.02-3.46-6.03-4.35-2.01-.89-4.21-1.34-6.59-1.34-4.65,0-8.63,1.67-11.95,5.02-3.31,3.31-4.97,7.35-4.97,12.11,0,2.34,.43,4.54,1.28,6.59,.85,2.05,2.07,3.91,3.63,5.58,1.64,1.6,3.47,2.83,5.5,3.68,2.03,.86,4.2,1.28,6.5,1.28s4.54-.45,6.59-1.34Z" fill="#fff"/><path d="M399.76,48.99l3.4,3.46v33.71h21.49l3.29,3.4h-28.19V48.99Z" fill="#fff"/><path d="M460.65,72.88c0,2.31-.44,4.48-1.31,6.53-.88,2.05-2.08,3.84-3.6,5.39-1.53,1.54-3.31,2.76-5.36,3.66-2.05,.89-4.24,1.34-6.59,1.34s-4.48-.45-6.53-1.34c-2.05-.89-3.83-2.11-5.36-3.66-1.53-1.54-2.73-3.34-3.6-5.39-.87-2.05-1.31-4.22-1.31-6.53v-23.83l3.4,3.07v20.76c0,1.82,.35,3.56,1.06,5.22,.71,1.66,1.66,3.1,2.88,4.33,1.21,1.23,2.63,2.21,4.27,2.93,1.64,.73,3.37,1.09,5.19,1.09,3.76,0,6.94-1.3,9.54-3.91h-.05c1.34-1.38,2.32-2.87,2.96-4.47,.63-1.6,.95-3.33,.95-5.19v-23.83l3.46,3.07v20.76Z" fill="#fff"/><path d="M465.56,48.99l17.19,.06c1.3,0,2.55,.26,3.74,.78,1.19,.52,2.24,1.23,3.15,2.12s1.65,1.94,2.21,3.15c.56,1.21,.84,2.5,.84,3.88s-.32,2.75-.95,4.13c-.63,1.38-1.43,2.53-2.4,3.46,1.04,.45,2.02,1.03,2.93,1.76,.91,.72,1.7,1.57,2.37,2.54,.67,.97,1.2,2.03,1.59,3.18,.39,1.15,.59,2.34,.59,3.57,0,1.64-.31,3.18-.92,4.63-.61,1.45-1.45,2.72-2.51,3.8-1.06,1.08-2.32,1.94-3.77,2.57-1.45,.63-3,.95-4.63,.95h-16.35v-20.48l-3.07-3.4h3.07v-13.23l-3.07-3.46Zm17.19,16.69c.89,0,1.74-.18,2.54-.53,.8-.35,1.5-.83,2.09-1.42,.59-.59,1.07-1.3,1.42-2.12,.35-.82,.53-1.69,.53-2.62,0-.86-.17-1.68-.5-2.48-.33-.8-.8-1.5-1.39-2.09-.6-.59-1.29-1.07-2.09-1.42-.8-.35-1.66-.53-2.6-.53h-10.66v13.23h10.66Zm2.23,20.54c1.15,0,2.24-.22,3.26-.67,1.02-.45,1.93-1.06,2.71-1.84,.78-.78,1.4-1.69,1.84-2.74,.45-1.04,.67-2.16,.67-3.35s-.22-2.3-.67-3.32c-.45-1.02-1.06-1.93-1.84-2.71-.78-.78-1.68-1.4-2.71-1.84-1.02-.45-2.11-.67-3.26-.67h-12.89v17.14h12.89Z" fill="#fff"/></g><g><path d="M183.04,117.66h3.13c3.31,0,4.89,2.38,4.89,7.08,0,5.09-1.41,7.91-5.14,7.91h-2.89v-15Zm1.28,13.87h1.52c2.98,0,3.9-2.38,3.9-6.73s-1.17-6.02-3.88-6.02h-1.54v12.75Z" fill="#fff"/><path d="M203.87,125.02c0,4.96-1.13,7.83-4.3,7.83s-4.21-2.73-4.21-7.78,1.39-7.63,4.28-7.63c3.04,0,4.23,2.54,4.23,7.58Zm-7.19,0c0,4.54,.97,6.7,2.93,6.7s2.93-2.14,2.93-6.66-.99-6.49-2.96-6.49-2.91,2.08-2.91,6.44Z" fill="#fff"/><path d="M209.85,125.56v7.1h-1.28v-15h3.68c2.43,0,3.66,1.44,3.66,3.8s-1.06,3.22-2.03,3.53c1.48,.48,1.87,1.81,1.87,3.86v.59c0,1.28,.03,2.41,.22,3.22h-1.3c-.2-.68-.2-2.07-.2-3.26v-.48c0-2.18-.42-3.35-2.58-3.35h-2.05Zm0-1.1h2.14c1.92,0,2.63-1.17,2.63-2.98,0-1.59-.73-2.71-2.49-2.71h-2.27v5.69Z" fill="#fff"/><path d="M228.25,128.58c-.07,.93-.46,4.28-3.93,4.28-3.88,0-4.13-4.39-4.13-7.83,0-4.19,1.06-7.58,4.32-7.58,3.48,0,3.64,3.4,3.68,4.19h-1.3c-.02-.51-.13-3-2.4-3-2.63,0-2.96,3.64-2.96,6.37,0,3.29,.37,6.7,2.82,6.7,2.16,0,2.51-2.29,2.58-3.13h1.3Z" fill="#fff"/><path d="M232.66,117.66h1.28v6.49h5.31v-6.49h1.26v15h-1.26v-7.37h-5.31v7.37h-1.28v-15Z" fill="#fff"/><path d="M252.16,125.27h-5.07v6.24h5.62l-.18,1.15h-6.7v-15h6.59v1.15h-5.34v5.31h5.07v1.15Z" fill="#fff"/><path d="M257.51,128.82c.11,1.63,.95,2.93,2.69,2.93,1.65,0,2.56-.88,2.56-2.82,0-1.72-.64-2.6-2.73-3.62-2.27-1.08-3.33-2.12-3.33-4.26,0-1.94,1.24-3.59,3.59-3.59,2.71,0,3.49,2.01,3.53,3.71h-1.26c-.07-.69-.29-2.6-2.34-2.6-1.59,0-2.25,1.1-2.25,2.38,0,1.57,.7,2.29,2.62,3.22,2.6,1.26,3.46,2.51,3.46,4.65,0,2.38-1.28,4.03-3.9,4.03-2.85,0-3.8-1.9-3.93-4.03h1.28Z" fill="#fff"/><path d="M270.52,118.81h-3.39v-1.15h8.05v1.15h-3.4v13.85h-1.26v-13.85Z" fill="#fff"/><path d="M285.37,125.27h-5.07v6.24h5.62l-.18,1.15h-6.7v-15h6.59v1.15h-5.34v5.31h5.07v1.15Z" fill="#fff"/><path d="M291.3,125.56v7.1h-1.28v-15h3.68c2.42,0,3.66,1.44,3.66,3.8s-1.06,3.22-2.03,3.53c1.48,.48,1.87,1.81,1.87,3.86v.59c0,1.28,.02,2.41,.22,3.22h-1.3c-.2-.68-.2-2.07-.2-3.26v-.48c0-2.18-.42-3.35-2.58-3.35h-2.05Zm0-1.1h2.14c1.92,0,2.63-1.17,2.63-2.98,0-1.59-.73-2.71-2.49-2.71h-2.27v5.69Z" fill="#fff"/><path d="M316.04,128.58c-.07,.93-.46,4.28-3.93,4.28-3.88,0-4.13-4.39-4.13-7.83,0-4.19,1.06-7.58,4.32-7.58,3.48,0,3.64,3.4,3.68,4.19h-1.3c-.02-.51-.13-3-2.4-3-2.63,0-2.96,3.64-2.96,6.37,0,3.29,.37,6.7,2.82,6.7,2.16,0,2.51-2.29,2.58-3.13h1.3Z" fill="#fff"/><path d="M328.57,125.02c0,4.96-1.13,7.83-4.3,7.83s-4.21-2.73-4.21-7.78,1.39-7.63,4.28-7.63c3.04,0,4.23,2.54,4.23,7.58Zm-7.19,0c0,4.54,.97,6.7,2.93,6.7s2.93-2.14,2.93-6.66-.99-6.49-2.96-6.49-2.91,2.08-2.91,6.44Z" fill="#fff"/><path d="M333.27,117.66h1.28v13.85h5.43l-.22,1.15h-6.48v-15Z" fill="#fff"/><path d="M343.8,117.66h1.28v13.85h5.43l-.22,1.15h-6.48v-15Z" fill="#fff"/><path d="M360.65,125.27h-5.07v6.24h5.62l-.18,1.15h-6.7v-15h6.59v1.15h-5.34v5.31h5.07v1.15Z" fill="#fff"/><path d="M372.9,128.58c-.07,.93-.46,4.28-3.93,4.28-3.88,0-4.13-4.39-4.13-7.83,0-4.19,1.06-7.58,4.32-7.58,3.48,0,3.64,3.4,3.68,4.19h-1.3c-.02-.51-.13-3-2.4-3-2.63,0-2.96,3.64-2.96,6.37,0,3.29,.37,6.7,2.82,6.7,2.16,0,2.51-2.29,2.58-3.13h1.3Z" fill="#fff"/><path d="M379.41,118.81h-3.4v-1.15h8.05v1.15h-3.4v13.85h-1.26v-13.85Z" fill="#fff"/><path d="M389.2,117.66v15h-1.28v-15h1.28Z" fill="#fff"/><path d="M402.42,125.02c0,4.96-1.12,7.83-4.3,7.83s-4.21-2.73-4.21-7.78,1.39-7.63,4.28-7.63c3.04,0,4.23,2.54,4.23,7.58Zm-7.19,0c0,4.54,.97,6.7,2.93,6.7s2.93-2.14,2.93-6.66-.99-6.49-2.96-6.49-2.91,2.08-2.91,6.44Z" fill="#fff"/><path d="M407.12,132.66v-15h1.66c4.54,11.16,5.11,12.5,5.31,13.12h.02c-.11-2.09-.13-4.37-.13-6.79v-6.33h1.21v15h-1.57c-4.72-11.66-5.23-12.97-5.38-13.52h-.02c.11,1.87,.11,4.43,.11,7.12v6.4h-1.21Z" fill="#fff"/></g></svg>